<?xml version="1.0" encoding="UTF-8" standalone="no"?>
<!DOCTYPE svg PUBLIC "-//W3C//DTD SVG 1.1//EN"
 "http://www.w3.org/Graphics/SVG/1.1/DTD/svg11.dtd">
<!-- Generated by graphviz version 2.43.0 (0)
 -->
<!-- Title: _extract_fsm Pages: 1 -->
<svg width="276pt" height="137pt"
 viewBox="0.00 0.00 276.00 137.00" xmlns="http://www.w3.org/2000/svg" xmlns:xlink="http://www.w3.org/1999/xlink">
<g id="graph0" class="graph" transform="scale(1 1) rotate(0) translate(4 133)">
<title>_extract_fsm</title>
<!-- Node1 -->
<g id="Node000001" class="node">
<title>Node1</title>
<g id="a_Node000001"><a xlink:title=" ">
<polygon fill="#999999" stroke="#666666" points="80,-74 0,-74 0,-55 80,-55 80,-74"/>
<text text-anchor="middle" x="40" y="-62" font-family="Helvetica,sans-Serif" font-size="10.00">_extract_fsm</text>
</a>
</g>
</g>
<!-- Node2 -->
<g id="Node000002" class="node">
<title>Node2</title>
<g id="a_Node000002"><a xlink:href="classvhdl__dox__filter_1_1_ghdl_parser.html#aa675902fc0196418a11e58332c2ff07a" target="_top" xlink:title="Recorre todo el código buscando asignaciones a señales puntero para recoger todos sus posibles valore...">
<polygon fill="white" stroke="#666666" points="257.5,-129 126.5,-129 126.5,-110 257.5,-110 257.5,-129"/>
<text text-anchor="middle" x="192" y="-117" font-family="Helvetica,sans-Serif" font-size="10.00">_collect_pointer_values</text>
</a>
</g>
</g>
<!-- Node1&#45;&gt;Node2 -->
<g id="edge1_Node000001_Node000002" class="edge">
<title>Node1&#45;&gt;Node2</title>
<g id="a_edge1_Node000001_Node000002"><a xlink:title=" ">
<path fill="none" stroke="#63b8ff" d="M57.8,-74.14C72.7,-82.36 95.25,-94 116,-101.5 121.87,-103.62 128.08,-105.57 134.33,-107.33"/>
<polygon fill="#63b8ff" stroke="#63b8ff" points="133.55,-110.75 144.11,-109.95 135.36,-103.98 133.55,-110.75"/>
</a>
</g>
</g>
<!-- Node3 -->
<g id="Node000003" class="node">
<title>Node3</title>
<g id="a_Node000003"><a xlink:href="classvhdl__dox__filter_1_1_ghdl_parser.html#a41b23311d7a10090bb600af641b28105" target="_top" xlink:title=" ">
<polygon fill="white" stroke="#666666" points="268,-74 116,-74 116,-55 268,-55 268,-74"/>
<text text-anchor="middle" x="192" y="-62" font-family="Helvetica,sans-Serif" font-size="10.00">_extract_branch_transitions</text>
</a>
</g>
</g>
<!-- Node1&#45;&gt;Node3 -->
<g id="edge2_Node000001_Node000003" class="edge">
<title>Node1&#45;&gt;Node3</title>
<g id="a_edge2_Node000001_Node000003"><a xlink:title=" ">
<path fill="none" stroke="#63b8ff" d="M80.02,-64.5C88.03,-64.5 96.76,-64.5 105.68,-64.5"/>
<polygon fill="#63b8ff" stroke="#63b8ff" points="105.82,-68 115.82,-64.5 105.82,-61 105.82,-68"/>
</a>
</g>
</g>
<!-- Node4 -->
<g id="Node000004" class="node">
<title>Node4</title>
<g id="a_Node000004"><a xlink:href="classvhdl__dox__filter_1_1_ghdl_parser.html#a7d46ea7fa11a6a571ee63b99f50459e2" target="_top" xlink:title="Busca CaseStatements recursivamente en cualquier nivel de anidamiento.">
<polygon fill="white" stroke="#666666" points="256,-19 128,-19 128,0 256,0 256,-19"/>
<text text-anchor="middle" x="192" y="-7" font-family="Helvetica,sans-Serif" font-size="10.00">_find_case_statements</text>
</a>
</g>
</g>
<!-- Node1&#45;&gt;Node4 -->
<g id="edge4_Node000001_Node000004" class="edge">
<title>Node1&#45;&gt;Node4</title>
<g id="a_edge4_Node000001_Node000004"><a xlink:title=" ">
<path fill="none" stroke="#63b8ff" d="M67.13,-54.92C91.57,-45.96 128.29,-32.49 155.4,-22.55"/>
<polygon fill="#63b8ff" stroke="#63b8ff" points="156.74,-25.79 164.92,-19.06 154.33,-19.22 156.74,-25.79"/>
</a>
</g>
</g>
<!-- Node3&#45;&gt;Node3 -->
<g id="edge3_Node000003_Node000003" class="edge">
<title>Node3&#45;&gt;Node3</title>
<g id="a_edge3_Node000003_Node000003"><a xlink:title=" ">
<path fill="none" stroke="#63b8ff" d="M168.57,-74.08C157.18,-82.73 164.98,-92 192,-92 209.73,-92 219.19,-88.01 220.37,-82.82"/>
<polygon fill="#63b8ff" stroke="#63b8ff" points="223.4,-81.06 215.43,-74.08 217.31,-84.51 223.4,-81.06"/>
</a>
</g>
</g>
<!-- Node4&#45;&gt;Node4 -->
<g id="edge5_Node000004_Node000004" class="edge">
<title>Node4&#45;&gt;Node4</title>
<g id="a_edge5_Node000004_Node000004"><a xlink:title=" ">
<path fill="none" stroke="#63b8ff" d="M168.57,-19.08C157.18,-27.73 164.98,-37 192,-37 209.73,-37 219.19,-33.01 220.37,-27.82"/>
<polygon fill="#63b8ff" stroke="#63b8ff" points="223.4,-26.06 215.43,-19.08 217.31,-29.51 223.4,-26.06"/>
</a>
</g>
</g>
</g>
</svg>
