<?xml version="1.0" encoding="UTF-8" standalone="no"?>
<!DOCTYPE svg PUBLIC "-//W3C//DTD SVG 1.1//EN"
 "http://www.w3.org/Graphics/SVG/1.1/DTD/svg11.dtd">
<!-- Generated by graphviz version 2.43.0 (0)
 -->
<!-- Title: parse Pages: 1 -->
<svg width="356pt" height="137pt"
 viewBox="0.00 0.00 356.00 137.00" xmlns="http://www.w3.org/2000/svg" xmlns:xlink="http://www.w3.org/1999/xlink">
<g id="graph0" class="graph" transform="scale(1 1) rotate(0) translate(4 133)">
<title>parse</title>
<!-- Node1 -->
<g id="Node000001" class="node">
<title>Node1</title>
<g id="a_Node000001"><a xlink:title=" ">
<polygon fill="#999999" stroke="#666666" points="44,-74 0,-74 0,-55 44,-55 44,-74"/>
<text text-anchor="middle" x="22" y="-62" font-family="Helvetica,sans-Serif" font-size="10.00">parse</text>
</a>
</g>
</g>
<!-- Node2 -->
<g id="Node000002" class="node">
<title>Node2</title>
<g id="a_Node000002"><a xlink:href="classvhdl__dox__filter_1_1_ghdl_parser.html#aeabac43510d2f524adf4d01b91e61752" target="_top" xlink:title=" ">
<polygon fill="white" stroke="#666666" points="160,-74 80,-74 80,-55 160,-55 160,-74"/>
<text text-anchor="middle" x="120" y="-62" font-family="Helvetica,sans-Serif" font-size="10.00">_extract_fsm</text>
</a>
</g>
</g>
<!-- Node1&#45;&gt;Node2 -->
<g id="edge1_Node000001_Node000002" class="edge">
<title>Node1&#45;&gt;Node2</title>
<g id="a_edge1_Node000001_Node000002"><a xlink:title=" ">
<path fill="none" stroke="#63b8ff" d="M44.31,-64.5C51.93,-64.5 60.87,-64.5 69.87,-64.5"/>
<polygon fill="#63b8ff" stroke="#63b8ff" points="69.98,-68 79.98,-64.5 69.98,-61 69.98,-68"/>
</a>
</g>
</g>
<!-- Node3 -->
<g id="Node000003" class="node">
<title>Node3</title>
<g id="a_Node000003"><a xlink:href="classvhdl__dox__filter_1_1_ghdl_parser.html#aa675902fc0196418a11e58332c2ff07a" target="_top" xlink:title="Recorre todo el código buscando asignaciones a señales puntero para recoger todos sus posibles valore...">
<polygon fill="white" stroke="#666666" points="337.5,-129 206.5,-129 206.5,-110 337.5,-110 337.5,-129"/>
<text text-anchor="middle" x="272" y="-117" font-family="Helvetica,sans-Serif" font-size="10.00">_collect_pointer_values</text>
</a>
</g>
</g>
<!-- Node2&#45;&gt;Node3 -->
<g id="edge2_Node000002_Node000003" class="edge">
<title>Node2&#45;&gt;Node3</title>
<g id="a_edge2_Node000002_Node000003"><a xlink:title=" ">
<path fill="none" stroke="#63b8ff" d="M137.8,-74.14C152.7,-82.36 175.25,-94 196,-101.5 201.87,-103.62 208.08,-105.57 214.33,-107.33"/>
<polygon fill="#63b8ff" stroke="#63b8ff" points="213.55,-110.75 224.11,-109.95 215.36,-103.98 213.55,-110.75"/>
</a>
</g>
</g>
<!-- Node4 -->
<g id="Node000004" class="node">
<title>Node4</title>
<g id="a_Node000004"><a xlink:href="classvhdl__dox__filter_1_1_ghdl_parser.html#a41b23311d7a10090bb600af641b28105" target="_top" xlink:title=" ">
<polygon fill="white" stroke="#666666" points="348,-74 196,-74 196,-55 348,-55 348,-74"/>
<text text-anchor="middle" x="272" y="-62" font-family="Helvetica,sans-Serif" font-size="10.00">_extract_branch_transitions</text>
</a>
</g>
</g>
<!-- Node2&#45;&gt;Node4 -->
<g id="edge3_Node000002_Node000004" class="edge">
<title>Node2&#45;&gt;Node4</title>
<g id="a_edge3_Node000002_Node000004"><a xlink:title=" ">
<path fill="none" stroke="#63b8ff" d="M160.02,-64.5C168.03,-64.5 176.76,-64.5 185.68,-64.5"/>
<polygon fill="#63b8ff" stroke="#63b8ff" points="185.82,-68 195.82,-64.5 185.82,-61 185.82,-68"/>
</a>
</g>
</g>
<!-- Node5 -->
<g id="Node000005" class="node">
<title>Node5</title>
<g id="a_Node000005"><a xlink:href="classvhdl__dox__filter_1_1_ghdl_parser.html#a7d46ea7fa11a6a571ee63b99f50459e2" target="_top" xlink:title="Busca CaseStatements recursivamente en cualquier nivel de anidamiento.">
<polygon fill="white" stroke="#666666" points="336,-19 208,-19 208,0 336,0 336,-19"/>
<text text-anchor="middle" x="272" y="-7" font-family="Helvetica,sans-Serif" font-size="10.00">_find_case_statements</text>
</a>
</g>
</g>
<!-- Node2&#45;&gt;Node5 -->
<g id="edge5_Node000002_Node000005" class="edge">
<title>Node2&#45;&gt;Node5</title>
<g id="a_edge5_Node000002_Node000005"><a xlink:title=" ">
<path fill="none" stroke="#63b8ff" d="M147.13,-54.92C171.57,-45.96 208.29,-32.49 235.4,-22.55"/>
<polygon fill="#63b8ff" stroke="#63b8ff" points="236.74,-25.79 244.92,-19.06 234.33,-19.22 236.74,-25.79"/>
</a>
</g>
</g>
<!-- Node4&#45;&gt;Node4 -->
<g id="edge4_Node000004_Node000004" class="edge">
<title>Node4&#45;&gt;Node4</title>
<g id="a_edge4_Node000004_Node000004"><a xlink:title=" ">
<path fill="none" stroke="#63b8ff" d="M248.57,-74.08C237.18,-82.73 244.98,-92 272,-92 289.73,-92 299.19,-88.01 300.37,-82.82"/>
<polygon fill="#63b8ff" stroke="#63b8ff" points="303.4,-81.06 295.43,-74.08 297.31,-84.51 303.4,-81.06"/>
</a>
</g>
</g>
<!-- Node5&#45;&gt;Node5 -->
<g id="edge6_Node000005_Node000005" class="edge">
<title>Node5&#45;&gt;Node5</title>
<g id="a_edge6_Node000005_Node000005"><a xlink:title=" ">
<path fill="none" stroke="#63b8ff" d="M248.57,-19.08C237.18,-27.73 244.98,-37 272,-37 289.73,-37 299.19,-33.01 300.37,-27.82"/>
<polygon fill="#63b8ff" stroke="#63b8ff" points="303.4,-26.06 295.43,-19.08 297.31,-29.51 303.4,-26.06"/>
</a>
</g>
</g>
</g>
</svg>
