<?xml version="1.0" encoding="UTF-8" standalone="no"?>
<!DOCTYPE svg PUBLIC "-//W3C//DTD SVG 1.1//EN"
 "http://www.w3.org/Graphics/SVG/1.1/DTD/svg11.dtd">
<!-- Generated by graphviz version 2.43.0 (0)
 -->
<!-- Title: generate Pages: 1 -->
<svg width="206pt" height="212pt"
 viewBox="0.00 0.00 206.00 212.00" xmlns="http://www.w3.org/2000/svg" xmlns:xlink="http://www.w3.org/1999/xlink">
<g id="graph0" class="graph" transform="scale(1 1) rotate(0) translate(4 208)">
<title>generate</title>
<!-- Node1 -->
<g id="Node000001" class="node">
<title>Node1</title>
<g id="a_Node000001"><a xlink:title=" ">
<polygon fill="#999999" stroke="#666666" points="60,-111 0,-111 0,-92 60,-92 60,-111"/>
<text text-anchor="middle" x="30" y="-99" font-family="Helvetica,sans-Serif" font-size="10.00">generate</text>
</a>
</g>
</g>
<!-- Node2 -->
<g id="Node000002" class="node">
<title>Node2</title>
<g id="a_Node000002"><a xlink:href="classvhdl__dox__filter_1_1_doxygen_generator.html#a89f9754dd49daddd2c74b8ff8574ec1f" target="_top" xlink:title=" ">
<polygon fill="white" stroke="#666666" points="194,-204 100,-204 100,-185 194,-185 194,-204"/>
<text text-anchor="middle" x="147" y="-192" font-family="Helvetica,sans-Serif" font-size="10.00">_constant_table</text>
</a>
</g>
</g>
<!-- Node1&#45;&gt;Node2 -->
<g id="edge1_Node000001_Node000002" class="edge">
<title>Node1&#45;&gt;Node2</title>
<g id="a_edge1_Node000001_Node000002"><a xlink:title=" ">
<path fill="none" stroke="#63b8ff" d="M36.99,-111.19C47.23,-127 69.57,-158.37 96,-176.5 98.13,-177.96 100.39,-179.32 102.73,-180.58"/>
<polygon fill="#63b8ff" stroke="#63b8ff" points="101.49,-183.86 112.03,-184.95 104.47,-177.52 101.49,-183.86"/>
</a>
</g>
</g>
<!-- Node3 -->
<g id="Node000003" class="node">
<title>Node3</title>
<g id="a_Node000003"><a xlink:href="classvhdl__dox__filter_1_1_doxygen_generator.html#a29a9f700484632d62efd69bcfe2f8218" target="_top" xlink:title="Diagrama de entidad estilo TerosHDL generado como HTML inline.">
<polygon fill="white" stroke="#666666" points="198,-167 96,-167 96,-148 198,-148 198,-167"/>
<text text-anchor="middle" x="147" y="-155" font-family="Helvetica,sans-Serif" font-size="10.00">_entity_diagram2</text>
</a>
</g>
</g>
<!-- Node1&#45;&gt;Node3 -->
<g id="edge2_Node000001_Node000003" class="edge">
<title>Node1&#45;&gt;Node3</title>
<g id="a_edge2_Node000001_Node000003"><a xlink:title=" ">
<path fill="none" stroke="#63b8ff" d="M45.55,-111.05C58.46,-119.27 78,-131.09 96,-139.5 99.57,-141.17 103.33,-142.78 107.13,-144.31"/>
<polygon fill="#63b8ff" stroke="#63b8ff" points="105.96,-147.61 116.55,-147.91 108.47,-141.07 105.96,-147.61"/>
</a>
</g>
</g>
<!-- Node4 -->
<g id="Node000004" class="node">
<title>Node4</title>
<g id="a_Node000004"><a xlink:href="classvhdl__dox__filter_1_1_doxygen_generator.html#a54d35e933fd573811af0dc9666d573e7" target="_top" xlink:title=" ">
<polygon fill="white" stroke="#666666" points="190,-130 104,-130 104,-111 190,-111 190,-130"/>
<text text-anchor="middle" x="147" y="-118" font-family="Helvetica,sans-Serif" font-size="10.00">_fsm_diagram</text>
</a>
</g>
</g>
<!-- Node1&#45;&gt;Node4 -->
<g id="edge3_Node000001_Node000004" class="edge">
<title>Node1&#45;&gt;Node4</title>
<g id="a_edge3_Node000001_Node000004"><a xlink:title=" ">
<path fill="none" stroke="#63b8ff" d="M60.02,-106.29C70.31,-108 82.23,-109.96 93.86,-111.89"/>
<polygon fill="#63b8ff" stroke="#63b8ff" points="93.52,-115.38 103.95,-113.55 94.66,-108.47 93.52,-115.38"/>
</a>
</g>
</g>
<!-- Node5 -->
<g id="Node000005" class="node">
<title>Node5</title>
<g id="a_Node000005"><a xlink:href="classvhdl__dox__filter_1_1_doxygen_generator.html#a11e5601bf468551461af80d4b702724e" target="_top" xlink:title=" ">
<polygon fill="white" stroke="#666666" points="191,-93 103,-93 103,-74 191,-74 191,-93"/>
<text text-anchor="middle" x="147" y="-81" font-family="Helvetica,sans-Serif" font-size="10.00">_generic_table</text>
</a>
</g>
</g>
<!-- Node1&#45;&gt;Node5 -->
<g id="edge4_Node000001_Node000005" class="edge">
<title>Node1&#45;&gt;Node5</title>
<g id="a_edge4_Node000001_Node000005"><a xlink:title=" ">
<path fill="none" stroke="#63b8ff" d="M60.02,-96.96C69.9,-95.41 81.29,-93.63 92.47,-91.88"/>
<polygon fill="#63b8ff" stroke="#63b8ff" points="93.3,-95.29 102.64,-90.29 92.22,-88.38 93.3,-95.29"/>
</a>
</g>
</g>
<!-- Node6 -->
<g id="Node000006" class="node">
<title>Node6</title>
<g id="a_Node000006"><a xlink:href="classvhdl__dox__filter_1_1_doxygen_generator.html#addf9b6635a43fa9df61a6c11bf8daf04" target="_top" xlink:title=" ">
<polygon fill="white" stroke="#666666" points="182.5,-56 111.5,-56 111.5,-37 182.5,-37 182.5,-56"/>
<text text-anchor="middle" x="147" y="-44" font-family="Helvetica,sans-Serif" font-size="10.00">_port_table</text>
</a>
</g>
</g>
<!-- Node1&#45;&gt;Node6 -->
<g id="edge5_Node000001_Node000006" class="edge">
<title>Node1&#45;&gt;Node6</title>
<g id="a_edge5_Node000001_Node000006"><a xlink:title=" ">
<path fill="none" stroke="#63b8ff" d="M46.7,-91.98C59.66,-84.31 78.68,-73.54 96,-65.5 100.19,-63.56 104.64,-61.65 109.08,-59.84"/>
<polygon fill="#63b8ff" stroke="#63b8ff" points="110.69,-62.97 118.72,-56.06 108.13,-56.46 110.69,-62.97"/>
</a>
</g>
</g>
<!-- Node7 -->
<g id="Node000007" class="node">
<title>Node7</title>
<g id="a_Node000007"><a xlink:href="classvhdl__dox__filter_1_1_doxygen_generator.html#aa033fdb0321759f39b0fd093c3a3b36e" target="_top" xlink:title=" ">
<polygon fill="white" stroke="#666666" points="187.5,-19 106.5,-19 106.5,0 187.5,0 187.5,-19"/>
<text text-anchor="middle" x="147" y="-7" font-family="Helvetica,sans-Serif" font-size="10.00">_signal_table</text>
</a>
</g>
</g>
<!-- Node1&#45;&gt;Node7 -->
<g id="edge6_Node000001_Node000007" class="edge">
<title>Node1&#45;&gt;Node7</title>
<g id="a_edge6_Node000001_Node000007"><a xlink:title=" ">
<path fill="none" stroke="#63b8ff" d="M37.43,-91.63C47.96,-76.18 70.29,-46.21 96,-28.5 98.71,-26.63 101.64,-24.91 104.66,-23.34"/>
<polygon fill="#63b8ff" stroke="#63b8ff" points="106.3,-26.44 113.91,-19.07 103.37,-20.09 106.3,-26.44"/>
</a>
</g>
</g>
</g>
</svg>
