<?xml version="1.0" encoding="UTF-8" standalone="no"?>
<!DOCTYPE svg PUBLIC "-//W3C//DTD SVG 1.1//EN"
 "http://www.w3.org/Graphics/SVG/1.1/DTD/svg11.dtd">
<!-- Generated by graphviz version 2.43.0 (0)
 -->
<!-- Title: i2c_master Pages: 1 -->
<svg width="79pt" height="137pt"
 viewBox="0.00 0.00 79.00 137.00" xmlns="http://www.w3.org/2000/svg" xmlns:xlink="http://www.w3.org/1999/xlink">
<g id="graph0" class="graph" transform="scale(1 1) rotate(0) translate(4 133)">
<title>i2c_master</title>
<!-- Node1 -->
<g id="Node000001" class="node">
<title>Node1</title>
<g id="a_Node000001"><a xlink:title=" ">
<polygon fill="#999999" stroke="#666666" points="71,-129 0,-129 0,-110 71,-110 71,-129"/>
<text text-anchor="middle" x="35.5" y="-117" font-family="Helvetica,sans-Serif" font-size="10.00">i2c_master</text>
</a>
</g>
</g>
<!-- Node2 -->
<g id="Node000002" class="node">
<title>Node2</title>
<g id="a_Node000002"><a xlink:href="class_t_o_p.html" target="_top" xlink:title=" ">
<polygon fill="white" stroke="#666666" points="53.5,-74 17.5,-74 17.5,-55 53.5,-55 53.5,-74"/>
<text text-anchor="middle" x="35.5" y="-62" font-family="Helvetica,sans-Serif" font-size="10.00">TOP</text>
</a>
</g>
</g>
<!-- Node1&#45;&gt;Node2 -->
<g id="edge1_Node000001_Node000002" class="edge">
<title>Node1&#45;&gt;Node2</title>
<g id="a_edge1_Node000001_Node000002"><a xlink:title=" ">
<path fill="none" stroke="#63b8ff" d="M35.5,-99.66C35.5,-90.93 35.5,-80.99 35.5,-74.09"/>
<polygon fill="#63b8ff" stroke="#63b8ff" points="32,-99.75 35.5,-109.75 39,-99.75 32,-99.75"/>
</a>
</g>
</g>
<!-- Node3 -->
<g id="Node000003" class="node">
<title>Node3</title>
<g id="a_Node000003"><a xlink:href="classtestbench.html" target="_top" xlink:title=" ">
<polygon fill="white" stroke="#666666" points="68,-19 3,-19 3,0 68,0 68,-19"/>
<text text-anchor="middle" x="35.5" y="-7" font-family="Helvetica,sans-Serif" font-size="10.00">testbench</text>
</a>
</g>
</g>
<!-- Node2&#45;&gt;Node3 -->
<g id="edge2_Node000002_Node000003" class="edge">
<title>Node2&#45;&gt;Node3</title>
<g id="a_edge2_Node000002_Node000003"><a xlink:title=" ">
<path fill="none" stroke="#63b8ff" d="M35.5,-44.66C35.5,-35.93 35.5,-25.99 35.5,-19.09"/>
<polygon fill="#63b8ff" stroke="#63b8ff" points="32,-44.75 35.5,-54.75 39,-44.75 32,-44.75"/>
</a>
</g>
</g>
</g>
</svg>
