<?xml version="1.0" encoding="UTF-8" standalone="no"?>
<!DOCTYPE svg PUBLIC "-//W3C//DTD SVG 1.1//EN"
 "http://www.w3.org/Graphics/SVG/1.1/DTD/svg11.dtd">
<!-- Generated by graphviz version 2.43.0 (0)
 -->
<!-- Title: _extract_branch_transitions Pages: 1 -->
<svg width="356pt" height="45pt"
 viewBox="0.00 0.00 356.00 45.00" xmlns="http://www.w3.org/2000/svg" xmlns:xlink="http://www.w3.org/1999/xlink">
<g id="graph0" class="graph" transform="scale(1 1) rotate(0) translate(4 41)">
<title>_extract_branch_transitions</title>
<!-- Node1 -->
<g id="Node000001" class="node">
<title>Node1</title>
<g id="a_Node000001"><a xlink:title=" ">
<polygon fill="#999999" stroke="#666666" points="348,-19 196,-19 196,0 348,0 348,-19"/>
<text text-anchor="middle" x="272" y="-7" font-family="Helvetica,sans-Serif" font-size="10.00">_extract_branch_transitions</text>
</a>
</g>
</g>
<!-- Node1&#45;&gt;Node1 -->
<g id="edge1_Node000001_Node000001" class="edge">
<title>Node1&#45;&gt;Node1</title>
<g id="a_edge1_Node000001_Node000001"><a xlink:title=" ">
<path fill="none" stroke="#63b8ff" d="M300.37,-27.82C299.19,-33.01 289.73,-37 272,-37 244.98,-37 237.18,-27.73 248.57,-19.08"/>
<polygon fill="#63b8ff" stroke="#63b8ff" points="303.4,-26.06 295.43,-19.08 297.31,-29.51 303.4,-26.06"/>
</a>
</g>
</g>
<!-- Node2 -->
<g id="Node000002" class="node">
<title>Node2</title>
<g id="a_Node000002"><a xlink:href="classvhdl__dox__filter_1_1_ghdl_parser.html#aeabac43510d2f524adf4d01b91e61752" target="_top" xlink:title=" ">
<polygon fill="white" stroke="#666666" points="160,-19 80,-19 80,0 160,0 160,-19"/>
<text text-anchor="middle" x="120" y="-7" font-family="Helvetica,sans-Serif" font-size="10.00">_extract_fsm</text>
</a>
</g>
</g>
<!-- Node1&#45;&gt;Node2 -->
<g id="edge2_Node000001_Node000002" class="edge">
<title>Node1&#45;&gt;Node2</title>
<g id="a_edge2_Node000001_Node000002"><a xlink:title=" ">
<path fill="none" stroke="#63b8ff" d="M185.54,-9.5C176.71,-9.5 168.08,-9.5 160.15,-9.5"/>
<polygon fill="#63b8ff" stroke="#63b8ff" points="185.56,-13 195.56,-9.5 185.56,-6 185.56,-13"/>
</a>
</g>
</g>
<!-- Node3 -->
<g id="Node000003" class="node">
<title>Node3</title>
<g id="a_Node000003"><a xlink:href="classvhdl__dox__filter_1_1_ghdl_parser.html#ae802864abb52b172da0cc2a364d2c7fa" target="_top" xlink:title=" ">
<polygon fill="white" stroke="#666666" points="44,-19 0,-19 0,0 44,0 44,-19"/>
<text text-anchor="middle" x="22" y="-7" font-family="Helvetica,sans-Serif" font-size="10.00">parse</text>
</a>
</g>
</g>
<!-- Node2&#45;&gt;Node3 -->
<g id="edge3_Node000002_Node000003" class="edge">
<title>Node2&#45;&gt;Node3</title>
<g id="a_edge3_Node000002_Node000003"><a xlink:title=" ">
<path fill="none" stroke="#63b8ff" d="M69.79,-9.5C60.75,-9.5 51.77,-9.5 44.13,-9.5"/>
<polygon fill="#63b8ff" stroke="#63b8ff" points="69.95,-13 79.95,-9.5 69.95,-6 69.95,-13"/>
</a>
</g>
</g>
</g>
</svg>
