<?xml version="1.0" encoding="UTF-8" standalone="no"?>
<!DOCTYPE svg PUBLIC "-//W3C//DTD SVG 1.1//EN"
 "http://www.w3.org/Graphics/SVG/1.1/DTD/svg11.dtd">
<!-- Generated by graphviz version 2.43.0 (0)
 -->
<!-- Title: testbench Pages: 1 -->
<svg width="258pt" height="137pt"
 viewBox="0.00 0.00 257.50 137.00" xmlns="http://www.w3.org/2000/svg" xmlns:xlink="http://www.w3.org/1999/xlink">
<g id="graph0" class="graph" transform="scale(1 1) rotate(0) translate(4 133)">
<title>testbench</title>
<!-- Node1 -->
<g id="Node000001" class="node">
<title>Node1</title>
<g id="a_Node000001"><a xlink:title=" ">
<polygon fill="#999999" stroke="#666666" points="152.5,-19 87.5,-19 87.5,0 152.5,0 152.5,-19"/>
<text text-anchor="middle" x="120" y="-7" font-family="Helvetica,sans-Serif" font-size="10.00">testbench</text>
</a>
</g>
</g>
<!-- Node2 -->
<g id="Node000002" class="node">
<title>Node2</title>
<g id="a_Node000002"><a xlink:href="classclk__reset__gen.html" target="_top" xlink:title=" ">
<polygon fill="white" stroke="#666666" points="84,-74 0,-74 0,-55 84,-55 84,-74"/>
<text text-anchor="middle" x="42" y="-62" font-family="Helvetica,sans-Serif" font-size="10.00">clk_reset_gen</text>
</a>
</g>
</g>
<!-- Node2&#45;&gt;Node1 -->
<g id="edge1_Node000001_Node000002" class="edge">
<title>Node2&#45;&gt;Node1</title>
<g id="a_edge1_Node000001_Node000002"><a xlink:title=" ">
<path fill="none" stroke="#63b8ff" d="M63.12,-49.15C77.21,-39.57 95.29,-27.29 107.24,-19.17"/>
<polygon fill="#63b8ff" stroke="#63b8ff" points="60.84,-46.47 54.53,-54.98 64.77,-52.26 60.84,-46.47"/>
</a>
</g>
</g>
<!-- Node3 -->
<g id="Node000003" class="node">
<title>Node3</title>
<g id="a_Node000003"><a xlink:href="class_t_o_p.html" target="_top" xlink:title=" ">
<polygon fill="white" stroke="#666666" points="138,-74 102,-74 102,-55 138,-55 138,-74"/>
<text text-anchor="middle" x="120" y="-62" font-family="Helvetica,sans-Serif" font-size="10.00">TOP</text>
</a>
</g>
</g>
<!-- Node3&#45;&gt;Node1 -->
<g id="edge2_Node000001_Node000003" class="edge">
<title>Node3&#45;&gt;Node1</title>
<g id="a_edge2_Node000001_Node000003"><a xlink:title=" ">
<path fill="none" stroke="#63b8ff" d="M120,-44.66C120,-35.93 120,-25.99 120,-19.09"/>
<polygon fill="#63b8ff" stroke="#63b8ff" points="116.5,-44.75 120,-54.75 123.5,-44.75 116.5,-44.75"/>
</a>
</g>
</g>
<!-- Node4 -->
<g id="Node000004" class="node">
<title>Node4</title>
<g id="a_Node000004"><a xlink:href="class_i2_c___c_o_n_t_r_o_l_l_e_r.html" target="_top" xlink:title=" ">
<polygon fill="white" stroke="#666666" points="171.5,-129 68.5,-129 68.5,-110 171.5,-110 171.5,-129"/>
<text text-anchor="middle" x="120" y="-117" font-family="Helvetica,sans-Serif" font-size="10.00">I2C_CONTROLLER</text>
</a>
</g>
</g>
<!-- Node4&#45;&gt;Node3 -->
<g id="edge3_Node000003_Node000004" class="edge">
<title>Node4&#45;&gt;Node3</title>
<g id="a_edge3_Node000003_Node000004"><a xlink:title=" ">
<path fill="none" stroke="#63b8ff" d="M120,-99.66C120,-90.93 120,-80.99 120,-74.09"/>
<polygon fill="#63b8ff" stroke="#63b8ff" points="116.5,-99.75 120,-109.75 123.5,-99.75 116.5,-99.75"/>
</a>
</g>
</g>
<!-- Node5 -->
<g id="Node000005" class="node">
<title>Node5</title>
<g id="a_Node000005"><a xlink:href="classmt9v111__agent.html" target="_top" xlink:title=" ">
<polygon fill="white" stroke="#666666" points="249.5,-74 156.5,-74 156.5,-55 249.5,-55 249.5,-74"/>
<text text-anchor="middle" x="203" y="-62" font-family="Helvetica,sans-Serif" font-size="10.00">mt9v111_agent</text>
</a>
</g>
</g>
<!-- Node5&#45;&gt;Node1 -->
<g id="edge4_Node000001_Node000005" class="edge">
<title>Node5&#45;&gt;Node1</title>
<g id="a_edge4_Node000001_Node000005"><a xlink:title=" ">
<path fill="none" stroke="#63b8ff" d="M180.96,-49.42C165.89,-39.81 146.41,-27.37 133.58,-19.17"/>
<polygon fill="#63b8ff" stroke="#63b8ff" points="179.35,-52.55 189.66,-54.98 183.12,-46.65 179.35,-52.55"/>
</a>
</g>
</g>
</g>
</svg>
