<?xml version="1.0" encoding="UTF-8" standalone="no"?>
<!DOCTYPE svg PUBLIC "-//W3C//DTD SVG 1.1//EN"
 "http://www.w3.org/Graphics/SVG/1.1/DTD/svg11.dtd">
<!-- Generated by graphviz version 2.43.0 (0)
 -->
<!-- Title: _vhd_to_dox_url Pages: 1 -->
<svg width="317pt" height="27pt"
 viewBox="0.00 0.00 317.00 27.00" xmlns="http://www.w3.org/2000/svg" xmlns:xlink="http://www.w3.org/1999/xlink">
<g id="graph0" class="graph" transform="scale(1 1) rotate(0) translate(4 23)">
<title>_vhd_to_dox_url</title>
<!-- Node1 -->
<g id="Node000001" class="node">
<title>Node1</title>
<g id="a_Node000001"><a xlink:title=" ">
<polygon fill="#999999" stroke="#666666" points="309,-19 213,-19 213,0 309,0 309,-19"/>
<text text-anchor="middle" x="261" y="-7" font-family="Helvetica,sans-Serif" font-size="10.00">_vhd_to_dox_url</text>
</a>
</g>
</g>
<!-- Node2 -->
<g id="Node000002" class="node">
<title>Node2</title>
<g id="a_Node000002"><a xlink:href="classgenerate__reports_1_1_reports_dox_generator.html#a7ce7dfebfa4a20eef244628991d5e95e" target="_top" xlink:title="Genera la sección de una herramienta.">
<polygon fill="white" stroke="#666666" points="177,-19 96,-19 96,0 177,0 177,-19"/>
<text text-anchor="middle" x="136.5" y="-7" font-family="Helvetica,sans-Serif" font-size="10.00">_tool_section</text>
</a>
</g>
</g>
<!-- Node1&#45;&gt;Node2 -->
<g id="edge1_Node000001_Node000002" class="edge">
<title>Node1&#45;&gt;Node2</title>
<g id="a_edge1_Node000001_Node000002"><a xlink:title=" ">
<path fill="none" stroke="#63b8ff" d="M202.83,-9.5C194.1,-9.5 185.26,-9.5 177.02,-9.5"/>
<polygon fill="#63b8ff" stroke="#63b8ff" points="202.99,-13 212.99,-9.5 202.99,-6 202.99,-13"/>
</a>
</g>
</g>
<!-- Node3 -->
<g id="Node000003" class="node">
<title>Node3</title>
<g id="a_Node000003"><a xlink:href="classgenerate__reports_1_1_reports_dox_generator.html#a50b12be787a9fc93165516f689a2ab36" target="_top" xlink:title=" ">
<polygon fill="white" stroke="#666666" points="60,-19 0,-19 0,0 60,0 60,-19"/>
<text text-anchor="middle" x="30" y="-7" font-family="Helvetica,sans-Serif" font-size="10.00">generate</text>
</a>
</g>
</g>
<!-- Node2&#45;&gt;Node3 -->
<g id="edge2_Node000002_Node000003" class="edge">
<title>Node2&#45;&gt;Node3</title>
<g id="a_edge2_Node000002_Node000003"><a xlink:title=" ">
<path fill="none" stroke="#63b8ff" d="M85.78,-9.5C77,-9.5 68.12,-9.5 60.14,-9.5"/>
<polygon fill="#63b8ff" stroke="#63b8ff" points="85.99,-13 95.99,-9.5 85.99,-6 85.99,-13"/>
</a>
</g>
</g>
</g>
</svg>
