<?xml version="1.0" encoding="UTF-8" standalone="no"?>
<!DOCTYPE svg PUBLIC "-//W3C//DTD SVG 1.1//EN"
 "http://www.w3.org/Graphics/SVG/1.1/DTD/svg11.dtd">
<!-- Generated by graphviz version 2.43.0 (0)
 -->
<!-- Title: _find_case_statements Pages: 1 -->
<svg width="332pt" height="45pt"
 viewBox="0.00 0.00 332.00 45.00" xmlns="http://www.w3.org/2000/svg" xmlns:xlink="http://www.w3.org/1999/xlink">
<g id="graph0" class="graph" transform="scale(1 1) rotate(0) translate(4 41)">
<title>_find_case_statements</title>
<!-- Node1 -->
<g id="Node000001" class="node">
<title>Node1</title>
<g id="a_Node000001"><a xlink:title="Busca CaseStatements recursivamente en cualquier nivel de anidamiento.">
<polygon fill="#999999" stroke="#666666" points="324,-19 196,-19 196,0 324,0 324,-19"/>
<text text-anchor="middle" x="260" y="-7" font-family="Helvetica,sans-Serif" font-size="10.00">_find_case_statements</text>
</a>
</g>
</g>
<!-- Node1&#45;&gt;Node1 -->
<g id="edge3_Node000001_Node000001" class="edge">
<title>Node1&#45;&gt;Node1</title>
<g id="a_edge3_Node000001_Node000001"><a xlink:title=" ">
<path fill="none" stroke="#63b8ff" d="M286.04,-28.19C284.62,-33.2 275.94,-37 260,-37 235.12,-37 227.92,-27.73 238.42,-19.08"/>
<polygon fill="#63b8ff" stroke="#63b8ff" points="289.12,-26.52 281.58,-19.08 282.84,-29.6 289.12,-26.52"/>
</a>
</g>
</g>
<!-- Node2 -->
<g id="Node000002" class="node">
<title>Node2</title>
<g id="a_Node000002"><a xlink:href="classvhdl__dox__filter_1_1_ghdl_parser.html#aeabac43510d2f524adf4d01b91e61752" target="_top" xlink:title=" ">
<polygon fill="white" stroke="#666666" points="160,-19 80,-19 80,0 160,0 160,-19"/>
<text text-anchor="middle" x="120" y="-7" font-family="Helvetica,sans-Serif" font-size="10.00">_extract_fsm</text>
</a>
</g>
</g>
<!-- Node1&#45;&gt;Node2 -->
<g id="edge1_Node000001_Node000002" class="edge">
<title>Node1&#45;&gt;Node2</title>
<g id="a_edge1_Node000001_Node000002"><a xlink:title=" ">
<path fill="none" stroke="#63b8ff" d="M185.47,-9.5C176.8,-9.5 168.23,-9.5 160.31,-9.5"/>
<polygon fill="#63b8ff" stroke="#63b8ff" points="185.65,-13 195.65,-9.5 185.65,-6 185.65,-13"/>
</a>
</g>
</g>
<!-- Node3 -->
<g id="Node000003" class="node">
<title>Node3</title>
<g id="a_Node000003"><a xlink:href="classvhdl__dox__filter_1_1_ghdl_parser.html#ae802864abb52b172da0cc2a364d2c7fa" target="_top" xlink:title=" ">
<polygon fill="white" stroke="#666666" points="44,-19 0,-19 0,0 44,0 44,-19"/>
<text text-anchor="middle" x="22" y="-7" font-family="Helvetica,sans-Serif" font-size="10.00">parse</text>
</a>
</g>
</g>
<!-- Node2&#45;&gt;Node3 -->
<g id="edge2_Node000002_Node000003" class="edge">
<title>Node2&#45;&gt;Node3</title>
<g id="a_edge2_Node000002_Node000003"><a xlink:title=" ">
<path fill="none" stroke="#63b8ff" d="M69.79,-9.5C60.75,-9.5 51.77,-9.5 44.13,-9.5"/>
<polygon fill="#63b8ff" stroke="#63b8ff" points="69.95,-13 79.95,-9.5 69.95,-6 69.95,-13"/>
</a>
</g>
</g>
</g>
</svg>
