<?xml version="1.0" encoding="UTF-8" standalone="no"?>
<!DOCTYPE svg PUBLIC "-//W3C//DTD SVG 1.1//EN"
 "http://www.w3.org/Graphics/SVG/1.1/DTD/svg11.dtd">
<!-- Generated by graphviz version 2.43.0 (0)
 -->
<!-- Title: Graphical Class Hierarchy Pages: 1 -->
<svg width="341pt" height="101pt"
 viewBox="0.00 0.00 341.00 101.00" xmlns="http://www.w3.org/2000/svg" xmlns:xlink="http://www.w3.org/1999/xlink">
<g id="graph0" class="graph" transform="scale(1 1) rotate(0) translate(4 97)">
<title>Graphical Class Hierarchy</title>
<!-- Node0 -->
<g id="Node000000" class="node">
<title>Node0</title>
<g id="a_Node000000"><a xlink:href="classclk__reset__gen.html" target="_top" xlink:title=" ">
<polygon fill="white" stroke="#666666" points="227.5,-93 143.5,-93 143.5,-74 227.5,-74 227.5,-93"/>
<text text-anchor="middle" x="185.5" y="-81" font-family="Helvetica,sans-Serif" font-size="10.00">clk_reset_gen</text>
</a>
</g>
</g>
<!-- Node1 -->
<g id="Node000001" class="node">
<title>Node1</title>
<g id="a_Node000001"><a xlink:href="classtestbench.html" target="_top" xlink:title=" ">
<polygon fill="white" stroke="#666666" points="333,-56 268,-56 268,-37 333,-37 333,-56"/>
<text text-anchor="middle" x="300.5" y="-44" font-family="Helvetica,sans-Serif" font-size="10.00">testbench</text>
</a>
</g>
</g>
<!-- Node0&#45;&gt;Node1 -->
<g id="edge1_Node000000_Node000001" class="edge">
<title>Node0&#45;&gt;Node1</title>
<g id="a_edge1_Node000000_Node000001"><a xlink:title=" ">
<path fill="none" stroke="#63b8ff" d="M225.41,-70.76C240.06,-65.96 256.46,-60.59 270.11,-56.12"/>
<polygon fill="#63b8ff" stroke="#63b8ff" points="224.01,-67.53 215.6,-73.97 226.19,-74.19 224.01,-67.53"/>
</a>
</g>
</g>
<!-- Node3 -->
<g id="Node000003" class="node">
<title>Node3</title>
<g id="a_Node000003"><a xlink:href="class_i2_c___c_o_n_t_r_o_l_l_e_r.html" target="_top" xlink:title=" ">
<polygon fill="white" stroke="#666666" points="103,-56 0,-56 0,-37 103,-37 103,-56"/>
<text text-anchor="middle" x="51.5" y="-44" font-family="Helvetica,sans-Serif" font-size="10.00">I2C_CONTROLLER</text>
</a>
</g>
</g>
<!-- Node2 -->
<g id="Node000002" class="node">
<title>Node2</title>
<g id="a_Node000002"><a xlink:href="class_t_o_p.html" target="_top" xlink:title=" ">
<polygon fill="white" stroke="#666666" points="203.5,-56 167.5,-56 167.5,-37 203.5,-37 203.5,-56"/>
<text text-anchor="middle" x="185.5" y="-44" font-family="Helvetica,sans-Serif" font-size="10.00">TOP</text>
</a>
</g>
</g>
<!-- Node3&#45;&gt;Node2 -->
<g id="edge2_Node000003_Node000002" class="edge">
<title>Node3&#45;&gt;Node2</title>
<g id="a_edge2_Node000003_Node000002"><a xlink:title=" ">
<path fill="none" stroke="#63b8ff" d="M113.39,-46.5C133.14,-46.5 153.5,-46.5 167.34,-46.5"/>
<polygon fill="#63b8ff" stroke="#63b8ff" points="113.16,-43 103.16,-46.5 113.16,-50 113.16,-43"/>
</a>
</g>
</g>
<!-- Node2&#45;&gt;Node1 -->
<g id="edge3_Node000002_Node000001" class="edge">
<title>Node2&#45;&gt;Node1</title>
<g id="a_edge3_Node000002_Node000001"><a xlink:title=" ">
<path fill="none" stroke="#63b8ff" d="M214.07,-46.5C230.23,-46.5 250.73,-46.5 267.59,-46.5"/>
<polygon fill="#63b8ff" stroke="#63b8ff" points="213.66,-43 203.66,-46.5 213.66,-50 213.66,-43"/>
</a>
</g>
</g>
<!-- Node4 -->
<g id="Node000004" class="node">
<title>Node4</title>
<g id="a_Node000004"><a xlink:href="classmt9v111__agent.html" target="_top" xlink:title=" ">
<polygon fill="white" stroke="#666666" points="232,-19 139,-19 139,0 232,0 232,-19"/>
<text text-anchor="middle" x="185.5" y="-7" font-family="Helvetica,sans-Serif" font-size="10.00">mt9v111_agent</text>
</a>
</g>
</g>
<!-- Node4&#45;&gt;Node1 -->
<g id="edge4_Node000004_Node000001" class="edge">
<title>Node4&#45;&gt;Node1</title>
<g id="a_edge4_Node000004_Node000001"><a xlink:title=" ">
<path fill="none" stroke="#63b8ff" d="M225.41,-22.24C240.06,-27.04 256.46,-32.41 270.11,-36.88"/>
<polygon fill="#63b8ff" stroke="#63b8ff" points="226.19,-18.81 215.6,-19.03 224.01,-25.47 226.19,-18.81"/>
</a>
</g>
</g>
</g>
</svg>
