<?xml version="1.0" encoding="UTF-8" standalone="no"?>
<!DOCTYPE svg PUBLIC "-//W3C//DTD SVG 1.1//EN"
 "http://www.w3.org/Graphics/SVG/1.1/DTD/svg11.dtd">
<!-- Generated by graphviz version 2.43.0 (0)
 -->
<!-- Title: Graphical Class Hierarchy Pages: 1 -->
<svg width="309pt" height="101pt"
 viewBox="0.00 0.00 309.00 101.00" xmlns="http://www.w3.org/2000/svg" xmlns:xlink="http://www.w3.org/1999/xlink">
<g id="graph0" class="graph" transform="scale(1 1) rotate(0) translate(4 97)">
<title>Graphical Class Hierarchy</title>
<!-- Node0 -->
<g id="Node000000" class="node">
<title>Node0</title>
<g id="a_Node000000"><a xlink:href="classclk__reset__gen.html" target="_top" xlink:title=" ">
<polygon fill="white" stroke="#666666" points="195.5,-93 111.5,-93 111.5,-74 195.5,-74 195.5,-93"/>
<text text-anchor="middle" x="153.5" y="-81" font-family="Helvetica,sans-Serif" font-size="10.00">clk_reset_gen</text>
</a>
</g>
</g>
<!-- Node1 -->
<g id="Node000001" class="node">
<title>Node1</title>
<g id="a_Node000001"><a xlink:href="classtestbench.html" target="_top" xlink:title=" ">
<polygon fill="white" stroke="#666666" points="301,-56 236,-56 236,-37 301,-37 301,-56"/>
<text text-anchor="middle" x="268.5" y="-44" font-family="Helvetica,sans-Serif" font-size="10.00">testbench</text>
</a>
</g>
</g>
<!-- Node0&#45;&gt;Node1 -->
<g id="edge1_Node000000_Node000001" class="edge">
<title>Node0&#45;&gt;Node1</title>
<g id="a_edge1_Node000000_Node000001"><a xlink:title=" ">
<path fill="none" stroke="#63b8ff" d="M193.41,-70.76C208.06,-65.96 224.46,-60.59 238.11,-56.12"/>
<polygon fill="#63b8ff" stroke="#63b8ff" points="192.01,-67.53 183.6,-73.97 194.19,-74.19 192.01,-67.53"/>
</a>
</g>
</g>
<!-- Node3 -->
<g id="Node000003" class="node">
<title>Node3</title>
<g id="a_Node000003"><a xlink:href="classi2c__master.html" target="_top" xlink:title=" ">
<polygon fill="white" stroke="#666666" points="71,-56 0,-56 0,-37 71,-37 71,-56"/>
<text text-anchor="middle" x="35.5" y="-44" font-family="Helvetica,sans-Serif" font-size="10.00">i2c_master</text>
</a>
</g>
</g>
<!-- Node2 -->
<g id="Node000002" class="node">
<title>Node2</title>
<g id="a_Node000002"><a xlink:href="class_t_o_p.html" target="_top" xlink:title=" ">
<polygon fill="white" stroke="#666666" points="171.5,-56 135.5,-56 135.5,-37 171.5,-37 171.5,-56"/>
<text text-anchor="middle" x="153.5" y="-44" font-family="Helvetica,sans-Serif" font-size="10.00">TOP</text>
</a>
</g>
</g>
<!-- Node3&#45;&gt;Node2 -->
<g id="edge2_Node000003_Node000002" class="edge">
<title>Node3&#45;&gt;Node2</title>
<g id="a_edge2_Node000003_Node000002"><a xlink:title=" ">
<path fill="none" stroke="#63b8ff" d="M81.49,-46.5C100.29,-46.5 121,-46.5 135.18,-46.5"/>
<polygon fill="#63b8ff" stroke="#63b8ff" points="81.3,-43 71.3,-46.5 81.3,-50 81.3,-43"/>
</a>
</g>
</g>
<!-- Node2&#45;&gt;Node1 -->
<g id="edge3_Node000002_Node000001" class="edge">
<title>Node2&#45;&gt;Node1</title>
<g id="a_edge3_Node000002_Node000001"><a xlink:title=" ">
<path fill="none" stroke="#63b8ff" d="M182.07,-46.5C198.23,-46.5 218.73,-46.5 235.59,-46.5"/>
<polygon fill="#63b8ff" stroke="#63b8ff" points="181.66,-43 171.66,-46.5 181.66,-50 181.66,-43"/>
</a>
</g>
</g>
<!-- Node4 -->
<g id="Node000004" class="node">
<title>Node4</title>
<g id="a_Node000004"><a xlink:href="classmt9v111__agent.html" target="_top" xlink:title=" ">
<polygon fill="white" stroke="#666666" points="200,-19 107,-19 107,0 200,0 200,-19"/>
<text text-anchor="middle" x="153.5" y="-7" font-family="Helvetica,sans-Serif" font-size="10.00">mt9v111_agent</text>
</a>
</g>
</g>
<!-- Node4&#45;&gt;Node1 -->
<g id="edge4_Node000004_Node000001" class="edge">
<title>Node4&#45;&gt;Node1</title>
<g id="a_edge4_Node000004_Node000001"><a xlink:title=" ">
<path fill="none" stroke="#63b8ff" d="M193.41,-22.24C208.06,-27.04 224.46,-32.41 238.11,-36.88"/>
<polygon fill="#63b8ff" stroke="#63b8ff" points="194.19,-18.81 183.6,-19.03 192.01,-25.47 194.19,-18.81"/>
</a>
</g>
</g>
</g>
</svg>
